<?xml version="1.0" encoding="UTF-8"?>
<svg id="Layer_1" xmlns="http://www.w3.org/2000/svg" version="1.1" viewBox="0 0 425.2 425.2">
  <!-- Generator: Adobe Illustrator 30.4.0, SVG Export Plug-In . SVG Version: 2.1.4 Build 226)  -->
  <defs>
    <style>
      .st0 {
        fill: #f0ebd5;
      }
    </style>
  </defs>
  <g>
    <path class="st0" d="M100.1,194.9c-.2-.2-.4-.4-.7-.5s-.6-.2-.9-.2-.3,0-.5,0-.3,0-.5.2c-.2,0-.3.2-.4.3,0,.1-.1.3-.1.5,0,.3.1.5.3.7.2.2.5.3.9.4.4.1.7.2,1.1.3.4.1.8.3,1.1.5.4.2.6.5.9.9.2.4.3.8.3,1.4s-.1,1.1-.3,1.5c-.2.4-.5.8-.9,1.1-.4.3-.8.5-1.3.6-.5.1-1,.2-1.5.2s-1.3-.1-1.8-.3c-.6-.2-1.1-.5-1.6-1l1.6-1.8c.2.3.5.5.9.7s.7.3,1.1.3.4,0,.6,0c.2,0,.4-.1.5-.2.1,0,.3-.2.4-.3,0-.1.1-.3.1-.5,0-.3-.1-.6-.4-.7-.2-.2-.5-.3-.9-.5-.4-.1-.7-.3-1.2-.4-.4-.1-.8-.3-1.2-.5-.4-.2-.7-.5-.9-.8-.2-.3-.4-.8-.4-1.4s.1-1,.3-1.4c.2-.4.5-.8.9-1s.8-.5,1.2-.6,1-.2,1.5-.2,1.1,0,1.7.2c.5.2,1,.4,1.5.8l-1.5,1.7Z"/>
    <path class="st0" d="M106.3,192.4h2.3v10.2h-2.3v-10.2Z"/>
    <path class="st0" d="M113.7,192.4h3.1l4.3,7.1h0v-7.1h2.3v10.2h-2.9l-4.5-7.3h0v7.3h-2.3v-10.2Z"/>
    <path class="st0" d="M128.5,192.4h3.4c.8,0,1.6,0,2.3.3.7.2,1.4.5,1.9.9.5.4,1,.9,1.3,1.6s.5,1.4.5,2.4-.2,1.6-.5,2.2c-.3.6-.7,1.2-1.3,1.6-.5.4-1.1.8-1.8,1s-1.4.3-2.2.3h-3.7v-10.2ZM130.7,200.6h1.2c.5,0,1,0,1.5-.2s.8-.3,1.2-.5c.3-.2.6-.6.8-1s.3-.9.3-1.5,0-.9-.3-1.3-.4-.7-.8-.9c-.3-.2-.7-.4-1.1-.5s-.9-.2-1.4-.2h-1.3v6.1Z"/>
    <path class="st0" d="M147.5,194.9c-.2-.2-.4-.4-.7-.5s-.6-.2-.9-.2-.3,0-.5,0-.3,0-.5.2c-.2,0-.3.2-.4.3,0,.1-.1.3-.1.5,0,.3.1.5.3.7.2.2.5.3.9.4.4.1.7.2,1.1.3.4.1.8.3,1.1.5.4.2.6.5.9.9.2.4.3.8.3,1.4s-.1,1.1-.3,1.5c-.2.4-.5.8-.9,1.1-.4.3-.8.5-1.3.6-.5.1-1,.2-1.5.2s-1.3-.1-1.8-.3c-.6-.2-1.1-.5-1.6-1l1.6-1.8c.2.3.5.5.9.7s.7.3,1.1.3.4,0,.6,0c.2,0,.4-.1.5-.2.1,0,.3-.2.4-.3,0-.1.1-.3.1-.5,0-.3-.1-.6-.4-.7-.2-.2-.5-.3-.9-.5-.4-.1-.7-.3-1.2-.4-.4-.1-.8-.3-1.2-.5-.4-.2-.7-.5-.9-.8-.2-.3-.4-.8-.4-1.4s.1-1,.3-1.4c.2-.4.5-.8.9-1s.8-.5,1.2-.6,1-.2,1.5-.2,1.1,0,1.7.2c.5.2,1,.4,1.5.8l-1.5,1.7Z"/>
  </g>
  <g>
    <path class="st0" d="M282.1,194.8l-2.1,1.8-1.2-1.4,3.3-2.8h2v10.2h-2.1v-7.8Z"/>
    <path class="st0" d="M293.9,199c-.1,0-.2,0-.3,0-.1,0-.2,0-.4,0-.5,0-.9,0-1.3-.3-.4-.2-.7-.4-1-.7s-.5-.7-.6-1.1c-.2-.4-.2-.8-.2-1.3s0-1,.3-1.4.5-.8.8-1.1c.3-.3.7-.5,1.2-.7s1-.3,1.5-.3,1,0,1.5.3.9.4,1.2.7c.3.3.6.7.8,1.1.2.4.3.9.3,1.4s0,.7-.1,1c0,.3-.2.6-.3.9-.1.3-.2.5-.4.8s-.3.5-.5.8l-2.2,3.5h-2.6l2.4-3.7ZM292.1,195.8c0,.5.2.8.5,1.1.3.3.7.5,1.2.5s.9-.2,1.2-.5c.3-.3.5-.7.5-1.1s-.2-.8-.5-1.1c-.3-.3-.7-.5-1.2-.5s-.9.2-1.2.5c-.3.3-.5.7-.5,1.1Z"/>
    <path class="st0" d="M308.5,194.3h-4.1v1.6c.2,0,.5-.1.9-.1s1,0,1.4.2c.4.2.8.4,1.1.7.3.3.6.6.7,1.1s.3.9.3,1.4,0,1.1-.3,1.5c-.2.5-.5.8-.8,1.1s-.8.6-1.2.7-1,.2-1.6.2c-.9,0-1.6-.2-2.2-.7s-1-1.1-1.2-2l2.3-.5c0,.4.2.7.5.9.3.2.6.3.9.3s.8-.1,1.1-.4c.3-.3.4-.7.4-1.1s0-.6-.2-.8c-.1-.2-.3-.4-.5-.5-.2-.1-.5-.2-.8-.3-.3,0-.6,0-.8,0s-.7,0-1.1.1-.7.2-1,.3v-5.6h6.3v1.9Z"/>
    <path class="st0" d="M317.1,199c-.1,0-.2,0-.3,0-.1,0-.2,0-.4,0-.5,0-.9,0-1.3-.3-.4-.2-.7-.4-1-.7s-.5-.7-.6-1.1c-.2-.4-.2-.8-.2-1.3s0-1,.3-1.4.5-.8.8-1.1c.3-.3.7-.5,1.2-.7s1-.3,1.5-.3,1,0,1.5.3.9.4,1.2.7c.3.3.6.7.8,1.1.2.4.3.9.3,1.4s0,.7-.1,1c0,.3-.2.6-.3.9-.1.3-.2.5-.4.8s-.3.5-.5.8l-2.2,3.5h-2.6l2.4-3.7ZM315.3,195.8c0,.5.2.8.5,1.1.3.3.7.5,1.2.5s.9-.2,1.2-.5c.3-.3.5-.7.5-1.1s-.2-.8-.5-1.1c-.3-.3-.7-.5-1.2-.5s-.9.2-1.2.5c-.3.3-.5.7-.5,1.1Z"/>
  </g>
  <g>
    <path class="st0" d="M68.2,302.4h-7.2l3.9-15.8h6.4l-3.1,15.8Z"/>
    <path class="st0" d="M93.4,294.9v35h-9.6v-35h-7.9v-8.3h25.5v8.3h-7.9Z"/>
    <path class="st0" d="M118,329.9v-7.9l13.3-26.7h-12.2v-8.6h23.3v7.8l-13.2,26.7h13.2v8.8h-24.4Z"/>
    <path class="st0" d="M180.7,308.1c0,3.4-.4,6.6-1.2,9.4-.8,2.8-1.9,5.2-3.3,7.2-1.4,2-3.2,3.5-5.2,4.6-2.1,1.1-4.4,1.7-6.9,1.7s-4.9-.5-6.9-1.7c-2.1-1.1-3.8-2.6-5.2-4.6-1.4-2-2.5-4.4-3.3-7.2-.8-2.8-1.2-6-1.2-9.4s.4-6.5,1.1-9.3c.8-2.8,1.8-5.2,3.3-7.2,1.4-2,3.2-3.5,5.2-4.6,2.1-1.1,4.4-1.6,7-1.6s4.9.5,6.9,1.6c2.1,1.1,3.8,2.6,5.2,4.6,1.4,2,2.5,4.4,3.3,7.2.8,2.8,1.2,5.9,1.2,9.3ZM170.7,308.1c0-1.9-.1-3.6-.4-5.2-.3-1.6-.7-3-1.3-4.2-.5-1.2-1.2-2.1-2-2.8-.8-.7-1.8-1-2.9-1s-2.1.3-2.9,1c-.8.7-1.5,1.6-2.1,2.8-.6,1.2-1,2.6-1.2,4.2-.3,1.6-.4,3.4-.4,5.2s.1,3.6.4,5.3c.3,1.6.7,3,1.2,4.2.5,1.2,1.2,2.1,2.1,2.8.8.7,1.8,1,2.9,1s2.1-.3,2.9-1c.8-.7,1.5-1.6,2-2.8.5-1.2,1-2.6,1.3-4.2.3-1.6.4-3.4.4-5.3Z"/>
    <path class="st0" d="M206.2,329.9l-10-26.3h-.2l.2,26.3h-8.7v-43.3h10.8l10,26.7h.2l-.2-26.7h8.4v43.3h-10.5Z"/>
    <path class="st0" d="M243.2,329.9l-10-26.3h-.2l.2,26.3h-8.7v-43.3h10.8l10,26.7h.2l-.2-26.7h8.4v43.3h-10.5Z"/>
    <path class="st0" d="M261.5,329.9v-43.3h20.9v8.6h-11.6v8.5h10.6v8.1h-10.6v9.3h12.3v8.8h-21.6Z"/>
    <path class="st0" d="M305.4,294.9v35h-9.6v-35h-7.9v-8.3h25.5v8.3h-7.9Z"/>
    <path class="st0" d="M332.5,326.9c-2,2.6-5.2,3.9-9.5,3.9s-5.6-.9-7.7-2.6c-2.1-1.7-3.5-4-4.2-6.8l7.9-3.5c.2,1,.6,1.8,1.2,2.6.5.7,1.3,1.1,2.2,1.1,1.3,0,2.2-.5,2.7-1.7.4-1.1.6-2.6.6-4.6v-28.8h9.7v29.6c0,4.5-1,8.1-3,10.7Z"/>
    <path class="st0" d="M343,329.9v-43.3h20.9v8.6h-11.6v8.5h10.6v8.1h-10.6v9.3h12.3v8.8h-21.6Z"/>
  </g>
  <g>
    <path class="st0" d="M140.6,355h2.5l1.6,6.6h0l2.1-6.6h2.1l2.1,6.7h0l1.7-6.7h2.3l-3,10.2h-2l-2.3-7.1h0l-2.3,7.1h-1.9l-3-10.2Z"/>
    <path class="st0" d="M159.3,355h6.9v2.1h-4.7v1.9h4.4v2.1h-4.4v2.1h5v2.1h-7.2v-10.2Z"/>
    <path class="st0" d="M171.5,355h4c.5,0,1,0,1.5.2.5.1.9.3,1.2.5.4.2.6.6.8,1,.2.4.3.9.3,1.5s-.2,1.3-.6,1.8c-.4.5-.9.8-1.6,1l2.6,4.3h-2.7l-2.1-4.1h-1.1v4.1h-2.3v-10.2ZM173.8,359.3h1.3c.2,0,.4,0,.6,0s.4,0,.6-.1c.2,0,.3-.2.5-.3.1-.2.2-.4.2-.6s0-.5-.2-.6c-.1-.2-.2-.3-.4-.4-.2,0-.4-.1-.6-.2-.2,0-.4,0-.6,0h-1.5v2.3Z"/>
    <path class="st0" d="M183,355h2.6l2.5,6.7h0l2.6-6.7h2.4l-4.2,10.2h-1.8l-4.1-10.2Z"/>
    <path class="st0" d="M197.5,355h6.9v2.1h-4.7v1.9h4.4v2.1h-4.4v2.1h5v2.1h-7.2v-10.2Z"/>
    <path class="st0" d="M209.6,355h4c.5,0,1,0,1.5.2.5.1.9.3,1.2.5.4.2.6.6.8,1,.2.4.3.9.3,1.5s-.2,1.3-.6,1.8-.9.8-1.6,1l2.6,4.3h-2.7l-2.1-4.1h-1.1v4.1h-2.3v-10.2ZM211.9,359.3h1.3c.2,0,.4,0,.6,0s.4,0,.6-.1c.2,0,.3-.2.5-.3.1-.2.2-.4.2-.6s0-.5-.2-.6c-.1-.2-.2-.3-.4-.4-.2,0-.4-.1-.6-.2-.2,0-.4,0-.6,0h-1.5v2.3Z"/>
    <path class="st0" d="M227.2,357.5c-.2-.2-.4-.4-.7-.5-.3-.1-.6-.2-.9-.2s-.3,0-.5,0-.3,0-.5.2c-.2,0-.3.2-.4.3s-.1.3-.1.5c0,.3.1.5.3.7.2.2.5.3.9.4.4.1.7.2,1.1.3.4.1.8.3,1.1.5.4.2.6.5.9.9s.3.8.3,1.4-.1,1.1-.3,1.5c-.2.4-.5.8-.9,1.1s-.8.5-1.3.6c-.5.1-1,.2-1.5.2s-1.3-.1-1.8-.3c-.6-.2-1.1-.5-1.6-1l1.6-1.8c.2.3.5.5.9.7.4.2.7.3,1.1.3s.4,0,.6,0c.2,0,.4-.1.5-.2.1,0,.3-.2.4-.3s.1-.3.1-.5c0-.3-.1-.6-.4-.7-.2-.2-.5-.3-.9-.5-.4-.1-.7-.3-1.2-.4-.4-.1-.8-.3-1.2-.5-.4-.2-.7-.5-.9-.8-.2-.3-.4-.8-.4-1.4s.1-1,.3-1.4.5-.8.9-1c.4-.3.8-.5,1.2-.6.5-.1,1-.2,1.5-.2s1.1,0,1.7.2c.5.2,1,.4,1.5.8l-1.5,1.7Z"/>
    <path class="st0" d="M233.6,355h2.3v3.8h4.4v-3.8h2.3v10.2h-2.3v-4.4h-4.4v4.4h-2.3v-10.2Z"/>
    <path class="st0" d="M247.2,360.1c0-.8.1-1.6.4-2.2.3-.7.7-1.2,1.1-1.7.5-.5,1.1-.8,1.7-1.1.7-.3,1.4-.4,2.2-.4s1.5.1,2.2.4c.7.3,1.3.6,1.7,1.1.5.5.9,1,1.1,1.7.3.7.4,1.4.4,2.2s-.1,1.6-.4,2.2c-.3.7-.7,1.2-1.1,1.7-.5.5-1.1.8-1.7,1.1-.7.3-1.4.4-2.2.4s-1.5-.1-2.2-.4-1.3-.6-1.7-1.1c-.5-.5-.9-1-1.1-1.7-.3-.7-.4-1.4-.4-2.2ZM249.5,360.1c0,.5,0,.9.2,1.3s.4.7.6,1,.6.5,1,.7c.4.2.8.2,1.3.2s.9,0,1.3-.2c.4-.2.7-.4,1-.7s.5-.6.6-1,.2-.8.2-1.3,0-.9-.2-1.3-.4-.8-.6-1c-.3-.3-.6-.5-1-.7-.4-.2-.8-.2-1.3-.2s-.9,0-1.3.2c-.4.2-.7.4-1,.7-.3.3-.5.6-.6,1s-.2.8-.2,1.3Z"/>
    <path class="st0" d="M262.4,360.1c0-.8.1-1.6.4-2.2.3-.7.7-1.2,1.1-1.7.5-.5,1.1-.8,1.7-1.1.7-.3,1.4-.4,2.2-.4s1.5.1,2.2.4c.7.3,1.3.6,1.7,1.1.5.5.9,1,1.1,1.7.3.7.4,1.4.4,2.2s-.1,1.6-.4,2.2c-.3.7-.7,1.2-1.1,1.7-.5.5-1.1.8-1.7,1.1-.7.3-1.4.4-2.2.4s-1.5-.1-2.2-.4-1.3-.6-1.7-1.1c-.5-.5-.9-1-1.1-1.7-.3-.7-.4-1.4-.4-2.2ZM264.7,360.1c0,.5,0,.9.2,1.3s.4.7.6,1,.6.5,1,.7c.4.2.8.2,1.3.2s.9,0,1.3-.2c.4-.2.7-.4,1-.7s.5-.6.6-1,.2-.8.2-1.3,0-.9-.2-1.3-.4-.8-.6-1c-.3-.3-.6-.5-1-.7-.4-.2-.8-.2-1.3-.2s-.9,0-1.3.2c-.4.2-.7.4-1,.7-.3.3-.5.6-.6,1s-.2.8-.2,1.3Z"/>
    <path class="st0" d="M278.2,355h6.9v2.1h-4.6v2.1h4.3v2.1h-4.3v4h-2.3v-10.2Z"/>
  </g>
  <g>
    <path class="st0" d="M264.9,147.5s.5,0,.6,0h.8c.1,0,.4-.1.5-.2.2-.3.1-.6.1-1v-1c0,0-.3-.2-.3-.2h-1.2c0-.1-.8-.2-.8-.2h-1.4s-.7,0-.7,0h-1.4s-.5-.2-.5-.2h-1.7s-1-.1-1-.1h-.8c-.3-.1-.5-.1-.8-.1h-1.4c0,0-.8,0-.8,0-.3,0-.5-.1-.9-.1h-.7s-.8,0-.8,0h-1.2c-.3,0-.4-.2-.7-.1-.1,0-.4,0-.5,0h-1.6c0,0-1.2-.2-1.2-.2h-1.9c0,0-1.2-.1-1.2-.1h-.9c0,0-.9-.2-.9-.2h-1.2s-.6,0-.6,0c-.2,0-.4,0-.6,0-.2,0-.4,0-.6-.1h-.7s-1.1,0-1.1,0h-1.1c0-.1-.9-.2-.9-.2h-1.4s-.8-.1-.8-.1h-.8c0-.1-1.1-.2-1.1-.2h-.9s-1-.1-1-.1h-1.5c0-.1-1.1-.2-1.1-.2-.3,0-.5,0-.7-.1-.2,0-.5,0-.7,0h-.9c0,0-1-.1-1-.1h-1c0,0-.8-.2-.8-.2h-.9s-1-.1-1-.1c-.5,0-.9-.2-1.5-.1l-.2,1.3v.7c0,0-.2.8-.2.8v.9c-.1,0-.2.9-.2.9v.8c0,0-.3,1.1-.3,1.1v.7c-.2.6-.3,1.1-.3,1.8,0,.2-.2.4-.3.4h-.6c-.1,0-.3.2-.3.3v.9c0,.2-.2.4-.2.6,0,.4-.2.8-.5.9h-1.7c-.5-.3-.6-.8-.6-1.3v-1c-.1-.6-.5-.2-1.1-.5-.2-.1-.2-.5-.2-.6v-.5s-.2-.9-.2-.9v-.6c0,0-.3-1.4-.3-1.4l-.2-1.4v-.7c0,0-.2-1.1-.2-1.1v-.8c-.1,0-.2-1-.2-1,0,0-.2-.2-.2-.2h-.8c0,0-2,.3-2,.3h-.7c0,0-.7.1-.7.1h-1.3c0,0-.7,0-.7,0h-.9c0,.1-1.1.2-1.1.2h-1.4c-.3,0-.5.2-.8.2h-.9s-.7,0-.7,0h-1.9s-.5.3-.5.3h-3.1c-.2.1-.5.2-.7.2h-.8s-1,.1-1,.1h-1.1c0,0-1,.2-1,.2h-1.5s-.8,0-.8,0h-.7c0,.1-1.4.2-1.4.2h-2.1c0,0-.6.2-.6.2h-.7s-1.5.1-1.5.1h-.9c0,0-.9.1-.9.1h-1c-.4,0-.9,0-1.4.1-.3,0-.5.1-.8.1h-1.1s-1.1,0-1.1,0h-.8c0,0-.8.1-.8.1h-.6c0,0-2.1.1-2.1.1h-1c0,.1-1.3.2-1.3.2h-1.8c0,0-1.2.1-1.2.1h-.9c0,0-.3.2-.3.3v1.8c0,.2.4.5.6.5h.9c.4,0,.7.7.6,1.3-.2.1-.7.3-.8.4l.3,3c0,.2.3.6.4.6l.8.3c.2.2.2.6.1.9,0,0,.2.3.3.3.9.4.2,1.2.7,1.4l1,.2c0,0,.3.2.3.3v1.4s0,.4,0,.4v1.9s0,3,0,3v43.4-2.3c0,0,0,6,0,6v.3c0,0,0,6.5,0,6.5v.4c0,0,0,1.8,0,1.8v.4c0,0,0,24.1,0,24.1v.4c0,0,0,3.2,0,3.2,0,.3,0,.6-.1.9-.3.1-1,.3-1,.6v1.3s0,1.9,0,1.9l.4.2h11.9c0,0,.2-.2.2-.3v-2.9s-2,0-2,0c-.1,0-.4-.3-.4-.4v-.8c0-.2.3-.4.6-.4h51c.2,0,.6.1.6.3v1.1c0,.2-.4.3-.5.3h-1.7s0,.9,0,.9v1.9c0,.3.3.3.6.3h14.3s23.9,0,23.9,0v-.3c.1,0,.1-2.5.1-2.5,0-.4-.1-.5-1-1v-89.1c.2-3.2,1.3-3,1.2-3.7,0-.3.2-.7.5-.8.3-.1.4-.3.3-.7,0-.2,0-.6.2-.7l.7-.3c.1,0,.3-.3.3-.4v-.4c0,0,.4-2.8.4-2.8,0,0,0-.3-.2-.3-.3-.2-.8-.5-.7-.9l.2-.4ZM172.7,204c0,.1-.3.3-.4.4l-.2.8-.2.8-.3,1.1-.3,1-.2.7c0,.2,0,.5,0,.8-.2.2-.5.3-.8.4v2.3c.3-.2.3-.3.4-.5l.3-.6c.2,0,.6-.1.8,0,.1,0,.3.4.4.5v3c0,.6-.4,1-.8.9-.4,0-.7-.6-.7-1v-1c-.4.3-.6.5-1,.5-.3,0-.8-.3-.8-.6v-3.6c-.5,0-.8-.2-.9-.6v-.6c0,0-.2-1.3-.2-1.3l-.2-.8-.3-1.1-.2-1.2-.5-.6c0-.2,0-.6.1-.7.2-.1.4-.2.7-.3.1,0,.2-.4.3-.5l.7-1.5.4-.6c.3-.5,0-.8.1-1.4,0-.3.5-.6.8-.5.4,0,.6.3.7.6.1.4,0,.7-.1,1l.6,1,.3.6.2.5.4.9.5.2c.3.1.5.6.3.9ZM208.8,210.9v-.8s0-6.6,0-6.6c0-.1,0-.3.2-.5h13.5c.2,0,.4,0,.4.3v32.1c0,.4-.5.3-.7.3h-1.9s-.4,0-.4,0h-5.6s-.3,0-.3,0h-2.4c-.5,0-.9.1-1.4,0-.9-.1-1.2.2-1.4-.3v-3.1s0-.3,0-.3v-2.6c0,0,0-18.6,0-18.6ZM207,203.1c.3,0,.4.1.4.4v32c0,.2-.3.3-.5.3h-7.9s-.6,0-.6,0h-1.6s-.4,0-.4,0h-3.1c-.1,0-.3-.2-.3-.3v-31.9c0-.2,0-.4.2-.5h13.8ZM181.5,154.8h5.1s.4,0,.4,0h1.5s.4,0,.4,0h8.2s.5,0,.5,0h.9c.1,0,.3.2.3.3v8.3c0,.3-.2.4-.4.4h-16.8c-.2,0-.3-.2-.3-.3v-8.5c0-.2.2-.3.3-.3ZM181.5,165.4h2s.4,0,.4,0h3.3c.5.1,1,0,1.6,0h1.1c0,0,6,0,6,0,.5-.1,1,0,1.6,0h1.1c0,.1.2.4.2.5v19.6c0,.2-.2.3-.3.3h-3.6s-.3,0-.3,0h-1.5s-.5,0-.5,0h-1.7s-.4,0-.4,0h-1.9s-.4,0-.4,0h-4.7s-.4,0-.4,0h-1.2c-.2,0-.4,0-.5-.2v-20c0-.2.1-.3.3-.3ZM178.7,187.7c0-.2.3-.4.5-.4h21.3c.2,0,.4,0,.6.2v2.1c0,0-.2.3-.3.3h-21.7c-.2,0-.4-.4-.3-.6v-1.7ZM177.7,203.1h11.9s.8,0,.8,0h1c.1,0,.4.1.4.3v32.2c-.1.2-.3.2-.5.2h-1.1c0,0-12.3,0-12.3,0-.2,0-.3,0-.5-.2v-28.5c0-.1.2-4.1.3-4.1ZM222.8,245.3c0,0-.2.3-.3.3h-1.5s-.4,0-.4,0h-2s-.4,0-.4,0h-40.5c-.1,0-.3-.1-.3-.2v-7.9c0-.2.2-.2.4-.2h1.1c0,0,43.6,0,43.6,0,.1,0,.3.2.4.3v7.8ZM227.8,154.8h2.8s.3,0,.3,0h2.8s.3,0,.3,0h10.9c.1.3.2.5.2.8v.9c0,0-.1,7-.1,7,0,.2-.3.3-.5.3h-16.5c-.2,0-.3-.3-.3-.5v-8.2s.2-.4.2-.4ZM245.1,170.3v15.4c-.3.4-.6.2-1,.2h-2.7s-.3,0-.3,0h-3.6s-.3,0-.3,0h-6.4s-.3,0-.3,0h-2.2c-.2,0-.4,0-.6-.3v-19.7c0-.2,0-.5.1-.5.1,0,.4-.1.5-.1h.5s1.4,0,1.4,0h.4c0,0,2.6,0,2.6,0h.3c0,0,2.3,0,2.3,0h.3c0,0,3.3,0,3.3,0h.3c0,0,3.3,0,3.3,0h.3c0,0,1.3,0,1.3,0,.2,0,.3.4.3.5v3c0,.5-.2.9,0,1.4ZM225.7,189.9l-.4-.3v-2c0-.1.3-.3.5-.3h21.3c.3.1.5.5.4.8v1.5c0,.1-.3.4-.5.4h-21.4ZM249,248.8c-.2.2-.4.3-.6.3h-15.7c-.2,0-.3-.3-.3-.5v-34.3c0-.3,0-.5.2-.8h14.6s.9,0,.9,0c.3,0,.7,0,1,.1v35.2ZM248.6,210.6h-2.6s-.8,0-.8,0h-.9c0,0-5.4,0-5.4,0h-.4c0,0-5.8,0-5.8,0-.3,0-.5-.2-.5-.5v-6.1c0-.3.2-.5.5-.5h15.4s.5,0,.5,0c0,0,.2.2.2.3v6.2s-.3.3-.3.3ZM260.1,204c-.2.2-.3.4-.4.6l-.2.9-.3,1-.2.8-.3,1c-.2.7.1,1,0,1.3-.2.2-.5.3-.8.4v3.6c0,.1-.2.4-.3.5-.5.3-.9,0-1.3-.4-.2.5,0,.9-.2,1.4,0,.2-.3.4-.5.5-.4.1-.9-.2-.9-.5v-3.5c0-.3.5-.5.7-.5.3,0,.6.2.7.5l.2.5c0,0,.2.1.3.2v-.7s0-1.6,0-1.6c-.3,0-.6-.2-.8-.4v-1s-.2-.6-.2-.6l-.2-1-.3-1-.2-.7-.2-1-.4-.4c-.2-.2-.2-.5,0-.8.1-.2.5-.3.7-.3l.7-1.4c.3-.5.5-1,.9-1.5,0-.4-.2-.8,0-1.2,0-.3.5-.4.7-.5l.5.3c.4.2.4.7.2,1-.3.5.2.7.3.9l1.1,2.3.6.3c.3.1.4.6.2.8Z"/>
    <path class="st0" d="M268.9,255.5l-3.3-2-.5-.3-.8-.4h-102.2s-.8.4-.8.4l-.4.2-.5.3-.4.2-.5.3-.8.5-.5.3-.5.3-1.1.6v2.8h.2c0,.1.1.1.2.1h112.5c.2-.1.2-.3.2-.5v-2.2s0-.2-.2-.3l-.7-.4Z"/>
    <path class="st0" d="M210.6,138.2v.6c0,.3,0,.6.2.8v.6s.4,1.9.4,1.9v1.1c.1,0,.2.9.2.9l.2,1.7v.7s.2.9.2.9l.2,1.1h3.2s.1-.4.1-.4v-.7c.1,0,.3-1.1.3-1.1l.2-1.3.3-1.9v-1c0,0,.3-1.3.3-1.3v-.6c.1,0,.2-.8.2-.8v-.7c0-.1,0-.3,0-.5h-4.9c-.4,0-.6,0-1.1,0Z"/>
    <path class="st0" d="M192.1,116.8h3.2c0,0,.2-.3.2-.3,0,0-.2,0-.3,0h-3.2c0,0-.1.3,0,.3,0,0,.2,0,.2,0Z"/>
    <path class="st0" d="M170.5,204.3c-.2,0-.4-.3-.6-.3-.7-.1-1,.4-1.6.4,0,0,0,.3,0,.4l.5,1.9.2,1,.2.9c.3,0,.7,0,1,0l.3-1.1.2-.6.2-.8.2-.8v-.4c.1,0,.2-.2.1-.3,0-.1-.4,0-.6-.2Z"/>
    <path class="st0" d="M257.2,204c-.6,0-.9.4-1.5.4l.2,1,.2.7.2.6v.5c.1,0,.5,1.3.5,1.3.3,0,.7,0,.9,0l.2-.8.2-1,.2-.7.3-1.1v-.6c.1,0-.6-.3-.6-.3-.2,0-.5-.2-.7-.2Z"/>
    <path class="st0" d="M214.2,103.8c0,.2,0,.4,0,.5.1,0,.4.1.6,0,.1,0,.2-.4.2-.5v-1.4c0,0,0-1.8,0-1.8v-1.4c.1-.3,0-.7-.3-.8-.2,0-.6.3-.6.5v.6c0,0,0,4.3,0,4.3Z"/>
    <path class="st0" d="M221.1,105.9l.9-1.2,1.9-2.5.3-.5c.1-.1,0-.4-.1-.6-.1,0-.4,0-.5.2l-1.8,2.4-.9,1.3-.7.9.4.4c.2-.1.4-.3.5-.4Z"/>
    <path class="st0" d="M224.6,113.7c-.1,0-.4.3-.3.4s.2.3.3.4h4.4c.2,0,.4-.2.4-.4,0-.5-1-.1-1.9-.3h-2.8Z"/>
    <path class="st0" d="M223.4,110c0,.1.3.3.4.3l.4-.2.8-.3.7-.3,1.8-.7c.1,0,.4-.3.3-.4l-.2-.4-.8.4-.8.3-.8.3-.7.3-.7.2c-.2,0-.4.2-.4.5Z"/>
    <path class="st0" d="M205.4,102.3l1.9,2.5.9,1.2c0,.1.3.3.5.4l.4-.4-.7-.9-.9-1.3-1.8-2.4c-.1-.1-.4-.2-.5-.2-.2.1-.2.4-.1.6l.3.5Z"/>
    <path class="st0" d="M200.3,114.4h4.4c.1,0,.3-.2.3-.3s-.2-.4-.3-.4h-2.8c-.9.2-1.8-.1-1.9.4,0,.1.2.3.4.4Z"/>
    <path class="st0" d="M201.7,108.8l1.8.7.7.3.8.3.4.2c0,0,.4-.2.4-.3,0-.2-.2-.4-.4-.5l-.7-.2-.7-.3-.8-.3-.8-.3-.8-.4-.2.4c0,.1.2.4.3.4Z"/>
    <path class="st0" d="M214.8,123.7c-.1,0-.4-.1-.6,0-.1,0-.2.4-.2.5v1.4c0,0,0,1.8,0,1.8v1.4c-.1.3,0,.7.3.8.2,0,.6-.3.6-.5v-.6c0,0,0-4.3,0-4.3,0-.2,0-.4,0-.5Z"/>
    <path class="st0" d="M205,126.2c-.1.1,0,.4.1.6.1,0,.4,0,.5-.2l1.8-2.4.9-1.3.7-.9-.4-.4c-.2.1-.4.3-.5.4l-.9,1.2-1.9,2.5-.3.5Z"/>
    <path class="st0" d="M205.4,117.8l-.4.2-.8.3-.7.3-1.8.7c-.1,0-.4.3-.3.4l.2.4.8-.4.8-.3.8-.3.7-.3.7-.2c.2,0,.4-.2.4-.5,0-.1-.3-.3-.4-.3Z"/>
    <path class="st0" d="M221.1,122.1c0-.1-.3-.3-.5-.4l-.4.4.7.9.9,1.3,1.8,2.4c.1.1.4.2.5.2.2-.1.2-.4.1-.6l-.3-.5-1.9-2.5-.9-1.2Z"/>
    <path class="st0" d="M224.4,118.7l.7.3.8.3.8.3.8.4.2-.4c0-.1-.2-.4-.3-.4l-1.8-.7-.7-.3-.8-.3-.4-.2c0,0-.4.2-.4.3,0,.2.2.4.4.5l.7.2Z"/>
    <path class="st0" d="M208.3,110.7l-.3.7-.2.7-.3,1.3c0,.4,0,1,0,1.3l.2,1,.2.9c.2.7.6,1.4,1.1,2,.9,1.2,2.2,2.1,3.7,2.5l1.4.3c.4,0,.9.1,1.4,0l1.3-.3,1-.4c1.1-.5,2.1-1.3,2.7-2.4l.4-.6.4-.7.3-.6c.1-.2,0-.8.1-1.1l.2-.5c0-.5,0-1.1,0-1.6l-.2-1c0-.3-.1-.6-.3-.8l-.3-.7c-.5-.9-1.1-1.7-2-2.4-.5-.3-.9-.8-1.5-.9l-1.2-.4c-1.1-.4-2.5-.3-3.7,0-.5.2-1,.4-1.5.6l-.5.3-.8.6-.7.6-.6.9-.3.6Z"/>
    <path class="st0" d="M262.5,126.5h-.4c0,0-3.4,0-3.4,0h-.6c0,.1.3.4.3.4h11.4c.1,0,.2-.2.2-.3,0,0-.2-.1-.3-.1h-5.1s-.6,0-.6,0h-1.5Z"/>
    <path class="st0" d="M255.1,123.2c0,.2,0,.3.2.4h9c0,0,.2-.3.2-.3-.1,0-.4,0-.5,0h-1.2s-5,0-5,0h-2.7Z"/>
    <path class="st0" d="M266.1,131.4h-.6c0,0-5.8,0-5.8,0,0,0-.3.1-.3.2,0,0,.1.2.2.2h6.3s.2-.1.2-.1c0,0,0-.2-.1-.2Z"/>
    <path class="st0" d="M252.4,121h4.8s.9,0,.9,0c0,0,.2-.3.1-.3h-.3c0-.1-5.6-.1-5.6-.1v.4Z"/>
    <path class="st0" d="M254.7,118.7c0,0,.3-.1.2-.2,0,0-.2-.2-.2-.2h-2s-2.1,0-2.1,0l.2.4h3.9Z"/>
    <path class="st0" d="M267.9,133.3h-.1c0,0-3.5,0-3.5,0,0,0-.1.2,0,.2h.1c0,0,3.5,0,3.5,0,0,0,.1-.2.1-.2Z"/>
    <path class="st0" d="M260.4,125.4c0,0,.1-.2,0-.3h-.2c0,0-1.1,0-1.1,0-.3,0-.6,0-.9.2.2,0,.3.1.4.1h1.7Z"/>
    <path class="st0" d="M159,126.9h9c.4,0,.6,0,1-.3-.3-.1-.5-.2-.8-.2h-9.5s-.2.1-.2.1c0,0,.1.3.5.3Z"/>
    <path class="st0" d="M164.2,123.6h10.2c0,0,.2,0,.2-.1v-.2c0,0-2.2,0-2.2,0h-1.1s-.8,0-.8,0h-1.6s-.4,0-.4,0h-3.8c-.2,0-.6,0-.7,0,0,0,.1.3.2.3Z"/>
    <path class="st0" d="M158.5,129.5h4.5s.4,0,.4,0h2.2s0-.4,0-.4h-4.9s-.5,0-.5,0h-1.7s-.4,0-.4,0h-2.3s-.2.3-.2.3c.1,0,.4.1.6.1h1.2s1.2,0,1.2,0Z"/>
    <path class="st0" d="M170.7,121.1h1.4s1.2,0,1.2,0h2.4s1.5,0,1.5,0c0,0,.2,0,.3,0,0,0,0-.3-.1-.3h-1.5s-.6,0-.6,0h-4s-.4,0-.4,0h-.5c0,0,0,.3,0,.3,0,0,.2,0,.2,0Z"/>
    <path class="st0" d="M179.5,118.7h.2c0-.2,0-.3,0-.4h-5.5c0,0-.3.1-.3.2l.2.2h5.5Z"/>
    <path class="st0" d="M161.2,131.7s.2,0,.2,0h1.3c0,0,.3,0,.3-.1v-.3s-1.8,0-1.8,0c0,0-.2.3,0,.3Z"/>
    <path class="st0" d="M171.5,125.2h-2.8s-.2,0-.2,0c0,0,0,.1,0,.1h3s0-.2,0-.2Z"/>
    <path class="st0" d="M179.5,123.2c-1.4,0-2.8,1.1-2.7,2.6,0,.3,0,.7-.3.7-.2,0-.3,0-.5,0-.9-.1-1.8.5-2.1,1.3-.1.4-.1.8-.2,1.2,0,.1,0,.3,0,.4,0,0-.3,0-.3,0l-.4-.3c-1.3-.9-3.7-.7-4.2,1.1-.2.7.3,1.5-.2,1.9-.1,0-.3,0-.4,0-.6-.5-1.4-.7-2.1-.4-.5.2-.9.5-1.1,1-.2.4-.2.8-.1,1.2,0,.3,0,.6.1.8,0,.2,0,.3,0,.5,0,.2,0,.2,0,.4-.2.5-.4,1-.3,1.5.2.5.3.9.5,1.4.3.6,1,1.1,1.6,1.4l1.3.6-.3-1-.2-.7c0-.3,0-.6-.6-1-.2,0-.3-.2-.5-.3-.2-.1-.3-.3-.4-.5,0-.2,0-.4.2-.5.2,0,.4,0,.6.1l-.3-.4c-.2-.3-.4-.5-.5-.8-.2-.4,0-1.6.7-1.2.3.2.6.6.6.9,0,.2,0,.3,0,.5,0,.1.1.5.1.6l.2-.4c.2-.2.6-.1.8.2.2.5.1.9-.1,1.4l-.3.6.2.8s.2-.2.2-.3c.2-.2.6-.4.8-.1.3.3.3,1,.1,1.4l-.4.8c0,.1,0,.5,0,.7.2-.3.5-.6.9-.4.2.1.2.6.1.8,0,.2,0,.4.1.6l.2.6h1.9s-.3-.2-.3-.2l-.9-.5c-.2-.1-.5-.4-.6-.6l-.3-.5c-.1-.4.2-1,.7-1.1.3,0,.7.1,1,.2,0,0,0-.3,0-.3l-.3-.4c-.8,0-1.7-.8-1.7-1.4,0-.1.1-.3.3-.4.3-.2.6-.2,1,0,.1-.3-.2-.6-.6-.8l-.6-.3c-.1,0-.3-.2-.4-.4-.3-.4-.2-1,0-1.1.2,0,.4,0,.7,0,0,0,0-.3,0-.3l-.6-.3c-.5-.3-1-.9-.8-1.3.1-.3.5-.3.7-.2.1,0,.3.1.4.2l-.2-.5c-.2-.4-.4-.8-.3-1.3,0-.2,0-.4.1-.6,0,0,0,0,0,0,.1-.2.4-.1.5,0,.4.2.5.6.6,1,0,.3,0,.6,0,1,0,.3,0,.5,0,.8l.3-.4c0,0,.3-.2.5-.2.1,0,.3.2.3.3.2.5,0,1-.3,1.4l-.2.4c-.1.2,0,.4.1.5l.4-.4c0-.1.4,0,.5,0,.5.3.4,1.3-.1,1.7-.2.2-.4.4-.2.7l.2.3c.1-.5.4-.7.8-.6.3,0,.4.5.4.4h.1c.1-.3.4-.6.6-.6.3,0,.7,0,.7.4,0,.5-.2,1,0,1.5,0,0,.8-1.1.7-1.2-.3-.3-.6-.7-.9-1.1-.1-.2-.3-.5-.4-.7-.2-.3-.3-.7-.4-1.1,0-.2,0-.4,0-.6,0-.2.1-.6.3-.7.2-.1.4,0,.6,0,.3,0,.6.4.9.6-.4-.7-.8-1.4-.9-2.3,0-.5,0-1.3.6-1.5.5-.1.7.3,1,.6.2.2,0-.7.2-1.1l.2-.7c0-.3.3-.7.5-.9.2-.3.7-.2.9,0,.6.7.5,1.7.3,2.7.3,0,.5-.5,1-.2.5.2.4,1.6,0,2.2l-.4.8-.4.7.7-.6c.3-.3.9-.4,1.2,0,.3.4.2,1.3,0,1.7l-.3.7-.6.8c-.2.3-.4.5-.5.8l.6-.5c.2-.2.5-.3.8-.1.2.1.4.4.4.7,0,.5,0,1-.1,1.4-.2.5-1.5.9-2.2,2,0-.3-.2-.6-.4-.8-.6-.5-1.1-.7-1.5-1.3,0,0-.7-.8-.7-.9,0,0,0,.1,0,.2-.2.5-.3.9-.8,1.2s-1.2.5-1.5.8c0,0,.5.8.6.7.4-.5,1.2-.9,1.8-.9.1,0,.3,0,.4.1.3.4-.1,1.2-.5,1.4-.4.2-.8.3-1.3.2s.2.4.2.5.2.5.3.5c0,0,2.6-.2,2.6-.2,0,0,1.1,0,1.1,0,.1,0,.3-.2.5-.2q.5,0,.9,0c.3,0,.6,0,.8-.1.1,0,0-.4,0-.5,0-.2-.2-.6,0-.9,0-.1.2-.2.3-.3,0,0,.2,0,.3,0,0,0-.2-.5-.2-.5-.2-.4-.2-1,.3-1.2.1,0,.2,0,.4,0,.1-.1-1-.5-.9-1.5,0-.3.3-.6.6-.4l.5.3c0-.2-.1-.4-.2-.5l-.3-.6c-.2-.4-.2-.8,0-1.1.1,0,.3-.2.4-.2.1,0,.3.2.3.3l.3.6c.1-.3.2-.7,0-1l-.3-.6-.2-.5c-.1-.3,0-.6.1-.9,0-.1.4-.2.5-.2.3,0,.3.6.6.6.1,0,.1-.7,0-.8-.4-.3-.4-.5-.5-.8,0-.2,0-.5.3-.6.4-.2.7.3.7,0,0-.6.4-1.9.8-2,0,0,.4,0,.4.2,0,.3,0,.8,0,1.1l-.4.9c.4,0,.6.2.6.5,0,.1-.1.4-.3.5l-.7.5c-.2.2-.3.6-.2.8.2-.2.4-.3.6-.3.2,0,.4.2.4.4,0,.2-.1.5-.3.6l-1.1.8c-.2.2-.4.4-.3.7.1,0,.3-.1.4-.2.2-.1.6.1.5.4,0,.3-.4.8-.8.9-.3,0-.7.4-.7.6,0,.4.9-.1,1-.3.2-.2.4-.5.6-.8.1-.3.2-.6.5-.8.2-.2.5-.2.8-.2,0,0,.1,0,.1-.1,0-.7.5-1.2,1.1-1.4.4-.2.9,0,1.2.2.1.1.2.2.3.3.3.3.4,0,.7-.1.1,0,.3-.1.4-.2.3-.1.6-.2,1-.2.1,0,.4.2.5.1,0,0,0-.2.1-.2.2-.6.8-1,1.4-1.1.4,0,.8,0,1.1.2s.4.2.6.4.3.5.5.6c0,0,0,0,.1,0,.2,0,.4-.2.5-.3.5-.2,1.2,0,1.6.3.3.3.5.7.4,1.1,0,0,.4,0,.5,0,.2,0,.5,0,.7.1.2.1.3.3.4.5.3.4.6-.2.7-.4.4-.7.5-1.5.3-2.4,0-.3-.4-.8-.7-.9-.5-.1-.6-.4-.6-.8,0-.6-.4-1-.9-1.2-.3,0-.5,0-.8,0s-.4,0-.4,0,0-.4,0-.6c.1-.8-.7-1.7-1.4-1.7-.4,0-.8,0-1.2,0,0-.2,0-.5,0-.7.1-.6,0-1.4-.2-1.9-.2-.4-.5-.8-.9-1.1-.4-.3-.9-.5-1.5-.5s-1.4.3-1.4,0c0,0,0-1.2,0-1.2,0-1-.7-2.1-1.5-2.8s-2.3-1.1-3.4-1.1c-.4,0-.7.1-1.1.2s-.7.2-.7.2c-1,.5-1.8,1.3-2.2,2.3-.2.4-.3.9-.3,1.4,0,.3.2,1.4-.3,1.4-.5,0-.9-.3-1.3-.4,0,0-.2,0-.3,0Z"/>
    <path class="st0" d="M183.2,140.6c0,0,0,.2.1.1.1-.2.5,0,.5.2,0,.1,0,.3,0,.4,0,0-.1.3-.2.3h.7s1.4,0,1.4,0h1.1c0,0,.7-.2.7-.2h1c-.2-.3-.3-.5-.4-.7-.3-.7-.6-1.3-1.1-1.9,0-.1-.1-.4,0-.6.3-.1.6,0,.7.2l.4.5s.2,0,.2,0v-.2c0-.1.2-.3.3-.4,0,0,.4,0,.4,0,.2.3.1.9-.1,1.4,0,0-.1.4,0,.5l.7.7c.2.2.3.3.6.3h1.4s-.3-.6-.3-.6l-.5-.8c0,0,0-.4,0-.5,0-.1.5-.2.6,0,.3.3.3.7.5,1,0,0,.2,0,.2-.1v-.8c.1-.3.2-.7,0-1-.1-.2-.3-.4-.3-.6,0-.5.6-.1.6-.1,0-.1,0-.7,0-.8,0-.1,0-.4.1-.5.1-.1.4-.1.5,0,.3.2.3.4.2.7,0,.2-.2.6-.2.7,0,.2.3,0,.4.3.1.3-.5.4-.5.7,0,0,0,1.2,0,1.2,0,.2,0,.4,0,.6l.5-.6.5-.7c.1-.1.6,0,.7,0,.2.3,0,.5-.2.7l-.8,1h1.1c0,0,.9-.2.9-.2h1.6c.1,0,.3-.1.4-.1.5.1,1.1.2,1.7.1.6,0,1.2-.3,1.4-.9.2-.7-.3-1.3-.9-1.5-.3-.1-.7-.1-1-.1.2-.7.1-1.5-.3-2-.4-.4-.9-.6-1.5-.5-.1,0-.2,0-.4.1,0-.3-.3-.6-.6-.8-.4-.3-1-.3-1.5-.1,0,0-.2-.6-.2-.6-.1-.2-.3-.4-.5-.6-.4-.2-.8-.3-1.2,0-.5.2-.6.6-.9,1.1-.1.2-.2.1-.4,0-.4,0-.8,0-1.1,0-.4.1-.8.3-1.1.7,0,.1-.3.2-.4,0,0,0,0-.3-.1-.4,0-.2-.1-.3-.2-.5-.1-.2-.3-.4-.5-.5-.6-.1-1,.5-1.1,1,0,.3,0,.5-.2.7-.2.2-.3.4-.5.6-.2.3,0,.3.1.5.1.1.2.3.2.4,0,.1-.1.2-.2.2-.2.1-.5,0-.8,0,0,0,0,.4,0,.5-.2.5-1.1.1-1.1.7.2.2.6.6.5.9-.3.7-1.2.3-1.6.7ZM191.1,136s0,0,0,0c0,0,0,0,0,0,0,0,0,0,0,0,0,0,0,0,0,0Z"/>
    <path class="st0" d="M163.2,136.8s0,0-.1-.1c0,0,0,0,0,0-.1,0-.2,0-.3,0-.2,0-.4,0-.5.2,0,0,0,.1-.1.2,0-.2-.2-.4-.3-.6-.2-.3-.7-.4-1,0-.1.1-.2.6,0,.7l.3.4c-.2,0-.3.1-.4.3-.1.2-.1.4,0,.6,0,.2.1.3.3.5,0,0,0,0,0,0,0,0,.1,0,.2.1.1,0,.3.1.4.1.2,0,.5,0,.7-.2,0,0,.1,0,.2,0,.2,0,.3,0,.5,0,0,0,0,.2,0,.2,0,0,0,0,0,0-.2,0-.4.2-.5.4,0,.1,0,.3,0,.5,0,.2.2.4.5.5.1,0,.3,0,.4,0,.2,0,.3,0,.5,0,0,0,.2,0,.2-.1,0,0,.1,0,.2,0,.1.1.1.3,0,.4-.1,0-.3,0-.4,0-.1,0-.3,0-.4.2-.1,0-.2.2-.2.4,0,.5.5.7.9.8.2,0,.5,0,.7,0,.2,0,.3,0,.4-.2,0,0,.2.2.2.2.1.1,0,.5,0,.6,0,0-.4.3-.3.3.3.1.8,0,1.1,0,.6,0,2.2,0,2-.2h-1.1c-.2,0-.5-.3-.4-.5,0-.2.2-.2.3-.2.2,0,.5,0,.6-.2,0,0,0-.2,0-.2-.1-.5-.8-.4-1.1-.3-.2,0-.3.1-.5.2,0,0-.1,0-.2,0,0,0-.1-.1-.2-.2,0,0,0,0,.1,0,0,0,0,0,0,0,.3-.2.5-.6.3-1-.2-.4-.8-.5-1.2-.2,0,0,0,0,0,0,0,0,0,0,0,.1l-.2-.2c-.2-.1-.2-.4,0-.7,0,0,0-.1,0-.2,0,0,0,0,0,0,.1-.2.1-.5-.1-.6-.2-.1-.9.1-.9-.2v-.8c0-.1,0-.2,0-.3,0-.2,0-.4-.2-.6Z"/>
    <path class="st0" d="M249.8,140.7c-.3,0-.5,0-.8.3h.2c0,.2.1,0,.2,0,.3-.2.6-.2.8,0,0,.1.3.4.2.5l-.4.5h.7s.9.2.9.2h2.4c.2.2.5.1.6,0l-1.5-.9c-.4-.2-.8-.7-.6-1,.3-.2.8,0,1.1,0l.6.3.3.2.5.3c0-.1,0-.3-.1-.4l-.7-1.5c-.1-.3-.2-.8-.2-1.1.3-.3.6,0,.8.2l.5.9.6,1.1.2.5.3.6c0,0,.2.2.2.2v-1.6c0,0,.2-.7.2-.7v-.7c0,0,.2-2.1.2-2.1v-.7c.1-.1.2-.2.3-.3,0,0,.1,0,.2,0,0,0,0,0,0,0,0,0,0,0,0,0,0,0,0,0,0,0,0,0,0,0,0,0,0,0,0,0,0,0,0,0,0,0,0,0,0,0,0,.1.1.2,0,0,0,0,0,0,0,0,0,0,0,0,0,0,0,0,0,.1,0,0,0,0,0,0v.5s0,1.5,0,1.5v4.3c0,0,.3-.7.3-.7l.5-.9.2-.4.3-.6.3-.6.3-.7.4-1.1c0-.1.3-.2.4-.2.2,0,.5.6.3,1l-.2.4c-.1.2-.2.4-.1.6l.4-.5c.2-.2.5-.3.8-.2.1,0,0,.4,0,.4l-.4.4-.4.4-1.4,1.7c.2,0,.3,0,.4,0l.5-.3.5-.2.5-.2.5-.3c.1,0,.4,0,.6,0,.2,0,.3.2.3.4-.1.4-.4.7-.7.8l-.4.2c-.2,0-.4.2-.5.3h-.2c0,0-.5.3-.5.3l-.5.2s-.1.1-.2.2h1.2s0,0,0,0c.4.3,1,.3,1.5.3.5,0,1.1-.1,1.5-.4.4-.2.7-.6.7-1.1,0,0,.2,0,.2,0,.6-.2,1-.6,1-1.2,0-.5-.2-1-.5-1.3,0,0-.2-.2-.2-.3.3-.4.2-1.1-.2-1.4-.4-.3-1-.3-1.4-.2-.3,0-.5.2-.6.3,0,0,0,0,0-.1,0-.2,0-.5,0-.7,0,0,0-.2,0-.3,0,0,0-.1,0-.2,0,0,0,0,0,0,0-.5-.2-.9-.6-1.2-.3-.2-.6-.3-1-.3-.5-.2-1-.2-1.4.2-.3.2-.4.6-.4.9,0,0,0,0,0,0,0-.7-.6-1.3-1.1-1.6-.3-.2-.7-.4-1.1-.3-.4,0-.8.3-1.2.5-.1,0-.2.1-.2.2,0,.1-.2.2-.2.4-.2.4-.1.9,0,1.3v.6c0,0,0,.1-.1.2,0,0,0,0,0,0,0-.3-.3-.5-.5-.7-.3-.2-.7-.3-1-.3-.3,0-.7,0-1,.1-.4.2-.6.5-.8.9-.1.4-.1.9-.1,1.4,0,0,0,0,0,.1,0,0,0,0-.1,0h-.8c-.3-.1-.7,0-.9.2.2.3.4.5.5.8,0,.4-.5.7-1.2.7ZM260.1,136.8s0,0,0,0c0,0,0,0,0,0,0,0,0,0,0,0ZM257.6,135.6s0,0,0,0c0,0,0,0,0,0,0,0,0,0,0,0Z"/>
    <path class="st0" d="M230.4,134.5c-.3,0-.5,0-.8,0-.4,0-.7.2-1,.5-.5.5-.8,1.2-.8,1.9,0,.3.1.6.2.9-.2.2-.2.5-.3.8,0,.4,0,.7.3,1,.2.3.5.4.8.6,0,0,.1,0,.2,0,0,0,.1,0,.2,0h1.3s-.8-.6-.8-.6c-.1,0-.3-.3-.3-.4,0-.4.6-.8,1.3-.6l1.2.2-.9-1c-.5-.6-1.1-1.4-.7-1.7,0,0,.4-.1.5,0l.9.3.5.3.4.3.5.4h.1s-.2-.4-.2-.4l-.2-.7-.2-.5-.3-1.1c0-.3,0-.7.3-.8.4-.2,1,.2,1.3.7l.5.7.2.4.3.7v.3c.1,0,.3-1.2.3-1.2l.3-.8.2-.5.3-.5c.3-.4.9-.9,1.2-.9.6.1.6,1.3.5,2.1l-.3,1.2-.2.8c.3-.2.4-.3.6-.5l.5-.5.5-.4c.5-.4,1.2-.5,1.3-.1.3.9-.5,2-1.1,2.9l1.2-.4c.3,0,.7,0,1,0l.4.4c-.2.5-.5.9-1,1.3l-.4.3h.6c.6,0,1.4,0,1.5.5,0,.1,0,.4-.1.5l-.5.4-.5.4h1.3c0,.1,1.2.1,1.2.1-.3-.2-.6-.4-.8-.6-.2-.2-.1-.8.2-.9.2,0,.5,0,.7,0l.7.7c.1-.6-.2-.9-.7-1.1-.8-.3-1.4-1.3-.8-1.8.1,0,.5-.2.6-.1l.4.3h.1c.1.3.3-.4-.3-.8-.8-.4-1.5-1.2-1.1-1.8.1-.1.5-.3.6-.2l.5.4h.1c0,.2.1,0,.1,0v-.2c0-.2-.1-.5-.3-.6l-1.1-.9c-.3-.3-.4-.8-.1-1.1.1-.2.6-.2.7,0l.5.5c.2-.6-.2-.9-.6-1.2l-.6-.6c-.2-.2-.3-.6-.2-.9,0-.2.4-.3.6-.2.2,0,.3.2.5.3,0,0,.1,0,.1,0l-.3-1.1c-.1-.5,0-1.1.3-1.3,0,0,.3,0,.4,0s.2.2.2.3l.2,1.1v1.4s.4-.5.4-.5c.1,0,.4,0,.6,0,.3.3.3.8,0,1.1l-.7.7c0,0-.2.3-.2.4v.4c0,0,.1.2.1.2,0,0,.2,0,.2,0l.3-.5c.1,0,.5,0,.6,0,.1.1.3.5.3.6-.2.7-.4.8-.9,1.2-.3.3-.4.6-.2,1l.4-.4c.2-.2.5,0,.7.1.5.6,0,1.2-.7,1.7-.2.2-.3.4-.2.7v.5c.1,0,.2,0,.2,0l.4-.6c.1-.2.6,0,.7.1,0,.2.2.4.2.6,0,.1,0,.4-.2.5l-1,1v.8s0,.2,0,.1h.1c.2-.3.6-.4.7-.1.1.2-.1.6-.3.7l-.2.2h.4c0,.1.9.1.9.1h0c-.4-.4-.5-.9-.2-1.2.4-.4,1.1.4,1,0,0,0,0-.2,0-.2l-.6-.8c-.2-.3-.2-.7,0-1,.1-.1.4-.2.6-.2.1,0,.3.2.5.3l.2-.2-.4-.7-.3-.5c-.2-.3-.2-.8,0-1,.3-.2.7-.2.9.2v.2c.1,0,.3,0,.3,0,.1-.2,0-.7-.2-.9l-.6-.5c-.3-.3-.3-.7,0-.9.2-.3.6-.4.9-.2l.3.4c0-.1.1-.4,0-.5l-.3-.4c-.3-.4-.4-.8,0-1.2.2-.1.5,0,.6.2.1.2.3-.1,0-.7-.2-.4-.2-.9.2-1.2.1-.1.5-.2.6,0,.2.3.4.7.3,1l-.2.9c.3-.2.6-.4.9-.3.2,0,.3.5.2.7-.2.6-1.2.6-1.4,1.6.3,0,.5-.2.8-.1.2,0,.3.4.3.5,0,.5-.5.9-1.1,1l-.4.3h.1c.2,0,.4,0,.6,0,.1,0,.2.3.2.4,0,0,0,.3-.2.4l-.5.3v.2c-.1,0,.7,0,.7,0,.3,0,.2-.6.5-1.2.3-.5.6-.9,1.1-1.2.3-.2.8,0,1.1,0,0,0,0,0,0,0,0,0,0,0,0,0,.3,0,.5,0,.8-.2.2-.1.3-.3.5-.4,0,0,.1-.1.2-.2,0,0,0,0,.1,0,0,0,0,0,0,0,0,0,0,0,0,0,0,0,0,0,.1,0s0,0,0,0c0,0,0,0,0,0,0,0,0,0,0,0,.1,0,.2,0,.3-.1.2,0,.3-.2.4-.4,0-.2,0-.4-.1-.6-.1-.2-.2-.4-.4-.6,0,0,0,0,0,0,.3-.3.8-.8.9-1.6,0-.4.1-.9,0-1.3l-.2-.7c-.2-.8-1-1.3-1.8-1.4h-1s-.7,0-.7,0v-.8c.3-.9.2-1.6-.4-2.4-.1-.2-.4-.5-.6-.6l-.4-.2c-.6-.3-1.6-.3-2.4,0,0,0-.3,0-.3,0v-.2s0-.7,0-.7c0-.2,0-.6,0-.8l-.3-.9-.2-.4c-.3-.7-.9-1.4-1.7-1.7l-.8-.3c-.4-.1-.9-.3-1.3-.2l-1.3.2-.7.2c-1.4.4-2.5,2.2-2.6,3.5v1.3c-.4-.3-.8-.5-1.3-.6-.5,0-1.1,0-1.6,0-1.3.2-2.2,1.4-2.2,2.6,0,.5,0,1.1.2,1.6,0,0,0,0,0,0h-.2c-.5-.2-1-.2-1.5,0-.8.3-1.2,1-1.2,1.9,0,.5-.7,0-1.5.3-.8.3-1.3.9-1.4,1.7-.2.4-.3,1-.2,1.4.1.8.5,1.6,1,2.2Z"/>
  </g>
  <g>
    <path class="st0" d="M158.8,88.9c-.4,0-.8-.1-1.1,0s-.7.2-1,.4c-.3.2-.5.5-.6.9-.1.4,0,.8.3,1.3.3.4.6.6,1,.6.4,0,1,0,1.7-.1.4,0,.8-.1,1.3-.1.5,0,.9,0,1.4,0s.9.3,1.4.5c.5.3.9.7,1.3,1.2.5.7.8,1.3,1,2,.2.7.2,1.3,0,1.9s-.3,1.1-.7,1.7c-.3.5-.8.9-1.3,1.3-.7.5-1.5.9-2.3,1.1-.8.2-1.5.2-2.2,0v-3.1c.4,0,.9,0,1.3,0,.5,0,.9-.3,1.3-.5.3-.2.5-.6.6-1,0-.4,0-.8-.3-1.2-.3-.4-.7-.6-1.1-.7-.5,0-1,0-1.8.1-.5,0-.9.1-1.3.1-.4,0-.9,0-1.3-.1-.4-.1-.8-.3-1.2-.6-.4-.3-.8-.7-1.2-1.2-.5-.7-.8-1.4-.9-2-.1-.7-.1-1.3,0-1.9.1-.6.4-1.1.7-1.6.3-.5.7-.9,1.2-1.2.7-.5,1.4-.8,2.1-1,.7-.2,1.4-.2,2,0v3.1Z"/>
    <path class="st0" d="M176.5,92.4l-7.2-6.9h0s4,8.4,4,8.4l-2.8,1.3-6.5-13.9,3.4-1.6,7.2,7.1h0s-4.1-8.6-4.1-8.6l2.7-1.3,6.5,13.9-3.3,1.6Z"/>
    <path class="st0" d="M191,87.5l-1.3-2.5-3.3.9v2.9c0,0-3.3.9-3.3.9l-.2-15.8,4.2-1.1,7.4,13.9-3.5.9ZM185.8,76.5h0s.4,6.7.4,6.7l2.5-.7-2.8-6Z"/>
    <path class="st0" d="M205.9,85.2c-.6.5-1.5.7-2.5.9-.9,0-1.7,0-2.5-.4-.8-.3-1.4-.8-2-1.5s-1.1-1.5-1.5-2.4c-.4-1-.6-2-.8-3.2-.1-1.2,0-2.3.1-3.3.2-1,.5-1.9,1-2.7.4-.8,1-1.4,1.7-1.8.7-.5,1.5-.7,2.4-.8,1-.1,1.9,0,2.6.3.7.3,1.3.7,1.8,1.2l-1.6,2.7c-.3-.3-.6-.6-1-.7-.3-.2-.8-.2-1.2-.2-.5,0-.8.2-1.2.5-.3.3-.6.6-.8,1.1-.2.4-.3,1-.4,1.6,0,.6,0,1.2,0,1.9,0,.7.2,1.3.4,1.8.2.6.4,1,.7,1.5.3.4.6.7,1,.9s.8.3,1.2.2c.5,0,.9-.2,1.2-.5.3-.3.6-.6.7-.9l2.2,2.2c-.4.6-.9,1.2-1.5,1.6Z"/>
    <path class="st0" d="M218.1,85.4l-3-7.2h0s-.3,7.1-.3,7.1h-3.5c0-.1.6-15.4.6-15.4h3.5c0,.1-.2,6.5-.2,6.5h0s3.4-6.3,3.4-6.3l3.9.2-4.2,6.9,3.9,8.5-4-.2Z"/>
    <path class="st0" d="M225.9,86.2l2.8-15.1,7.3,1.3-.5,3-4-.7-.5,3,3.7.7-.5,2.8-3.7-.7-.6,3.2,4.3.8-.6,3.1-7.5-1.4Z"/>
    <path class="st0" d="M243.6,90.7v-6.4c0,0-.9-.3-.9-.3l-2,5.8-3.1-1.1,5.1-14.5,4.6,1.6c1.4.5,2.4,1.2,2.9,2.2.5,1,.5,2.2,0,3.7-.2.5-.4,1-.7,1.4s-.6.7-.9.9c-.3.2-.6.4-.9.5-.3.1-.6.2-.9.2l.2,7.3-3.4-1.2ZM246.9,80.7c.1-.4.2-.7.2-1,0-.3,0-.5-.2-.7-.1-.2-.3-.3-.4-.5-.2-.1-.4-.2-.6-.3l-1-.4-1.3,3.7,1,.3c.5.2.9.2,1.4,0,.5-.2.8-.6,1-1.2Z"/>
    <path class="st0" d="M250.5,93.7l7.2-13.5,3.1,1.6-7.2,13.5-3.1-1.6Z"/>
    <path class="st0" d="M258,97.9l9-12.4,6,4.3-1.8,2.5-3.3-2.4-1.8,2.4,3,2.2-1.7,2.3-3-2.2-1.9,2.7,3.5,2.6-1.8,2.5-6.2-4.5Z"/>
  </g>
  <path class="st0" d="M212.8,132c0,0-.1,0-.2,0h-.5s-6.2,0-6.2,0h-1.8s-1.2,0-1.2,0c0,0-.1.3,0,.4h1.2s2,0,2,0h1.6s4.4,0,4.4,0h.8c0,0,.1-.3,0-.3Z"/>
  <path class="st0" d="M175.9,116.3c0,0-.2,0-.3,0h-.7s-8.1,0-8.1,0h-2.4s-1.6,0-1.6,0c0,0-.2.3-.1.4h1.6s2.6,0,2.6,0h2.1s5.7,0,5.7,0h1c0,0,.1-.3,0-.3Z"/>
  <path class="st0" d="M181.2,113.3h1.6s2.4,0,2.4,0h8.1s.7,0,.7,0c0,0,.2,0,.3,0,0,0,0,.3,0,.3h-1s-5.7,0-5.7,0h-2.1s-2.6,0-2.6,0h-5.2s-1-.4.5-.4,1.2,0,1.2,0h2.1Z"/>
  <path class="st0" d="M238.7,114.7c0,.1.6,0,.7,0,.3,0,.6,0,1,0,.7,0,1.4,0,2.1,0,1.3,0,2.6,0,3.9,0,5.5,0,5.7-.1,5.3-.3-4-.1-7.6-.2-11.6-.1-.2,0-.8,0-1,0s-.2,0-.3,0-.2.1-.1.2Z"/>
  <path class="st0" d="M275.5,136s-.1,0-.2,0h-.5s-5.3,0-5.3,0h-1.6s-1,0-1,0c0,0-.1.3,0,.4h1s1.7,0,1.7,0h1.4s3.7,0,3.7,0h.7c0,0,0-.3,0-.3Z"/>
  <path class="st0" d="M161.8,134s-.1,0-.2,0h-.5s-5.3,0-5.3,0h-1.6s-1,0-1,0c0,0-.1.3,0,.4h1s1.7,0,1.7,0h1.4s3.7,0,3.7,0h.7c0,0,0-.3,0-.3Z"/>
  <path class="st0" d="M240.2,117.6s-.1,0-.2,0h-.5s-5.3,0-5.3,0h-1.6s-1,0-1,0c0,0-.1.3,0,.4h1s1.7,0,1.7,0h1.4s3.7,0,3.7,0h.7c0,0,0-.3,0-.3Z"/>
  <path class="st0" d="M224.9,133.7s-.1,0-.2,0h-.5s-5.3,0-5.3,0h-1.6s-1,0-1,0c0,0-.1.3,0,.4h1s1.7,0,1.7,0h1.4s3.7,0,3.7,0h.7c0,0,0-.3,0-.3Z"/>
  <path class="st0" d="M217.6,136.1c0,0-.2,0-.3,0h-.6s-7.4,0-7.4,0h-2.2s-.6,0-.6,0c0,0-.2.2-.1.3h.6s2.4,0,2.4,0h1.9s5.2,0,5.2,0h1c0,0,.1-.3,0-.3Z"/>
  <path class="st0" d="M272.2,129.2c0,0-.2,0-.3,0h-.6s-7,0-7,0h-2.1s-.6,0-.6,0c-.2,0-.1.2,0,.3.3,0,.6,0,.9,0h.9c.4,0,.7,0,1.1,0h1.8s4.9,0,4.9,0h.9c0,0,0-.3,0-.3Z"/>
  <path class="st0" d="M209.7,111.9h6.3c.1,0,.4,0,.3-.2v-.2c-.1,0-6.9,0-6.9,0,0,0-.2.3,0,.3h.3Z"/>
  <path class="st0" d="M156.7,120.8h7.7c.2,0,.5,0,.4-.2v-.2c-.1,0-8.4,0-8.4,0,0,0-.2.3,0,.3h.4Z"/>
  <path class="st0" d="M269.6,132.3h7.7c.2,0,.5,0,.4-.2v-.2c-.1,0-8.4,0-8.4,0,0,0-.2.3,0,.3h.4Z"/>
  <path class="st0" d="M148.9,132.3h7.7c.2,0,.5,0,.4-.2v-.2c-.1,0-8.4,0-8.4,0,0,0-.2.3,0,.3h.4Z"/>
</svg>